<svg xmlns="http://www.w3.org/2000/svg" xmlns:xlink="http://www.w3.org/1999/xlink" xmlns:a="http://ns.adobe.com/AdobeSVGViewerExtensions/3.0/" version="1.1" x="0px" y="0px" width="100px" height="100px" viewBox="-19.0 -9.97 100.0 135.0" enable-background="new -24 0.03 100 100" xml:space="preserve">
<defs>
</defs>
<path d="M16.294,38.99c1.288,1.769,3.859-0.104,2.571-1.872c-2.958-4.065-6.067-8.334-8.826-12.123  c-1.103-1.515-3.674,0.357-2.571,1.872C7.468,26.867,13.335,34.925,16.294,38.99z"/>
<path d="M18.465,35.216c1.404,1.929,3.976,0.057,2.572-1.872c-2.341-3.215-4.213-5.787-6.554-9.001  c-1.404-1.929-3.976-0.056-2.571,1.873C11.912,26.215,16.125,32.001,18.465,35.216z"/>
<path d="M12.037,39.897c1.404,1.929,3.976,0.056,2.571-1.873c-2.341-3.215-4.213-5.786-6.553-9  c-1.404-1.929-3.976-0.057-2.572,1.872C5.483,30.896,9.696,36.683,12.037,39.897z"/>
<path d="M54.11,0.407c-11.571,8.427-22.5,16.385-34.072,24.81c-0.239,0.174-0.428,0.354-0.593,0.537  c-0.49-0.673-0.98-1.346-1.47-2.019c-0.828-1.136-2.757,0.268-1.929,1.404c0,0,3.31,4.547,4.965,6.82  c0.828,1.137,2.757-0.268,1.929-1.404c-0.575-0.789-1.149-1.578-1.724-2.366c0.225-0.102,0.454-0.226,0.693-0.4  c0,0,22.501-16.383,34.072-24.809C57.912,1.574,56.039-0.997,54.11,0.407z"/>
<path d="M38.96,57.134c0.293-1.555,0.421-4.248-0.635-6.316l-0.18-0.216l-0.204-0.172c-2.521-2.582-9.735-4.456-16.84-4.456  c-3.53,0-7.102,0.457-10.102,1.251c0-2.135,0-4.345,0-6.818c0-0.187,0.075-0.327-0.126-0.427c-0.033-0.07,0.033-0.14-0.018-0.209  c-1.778-2.441-3.503-4.883-5.281-7.325c-0.889-1.221-2.791,0.111-1.902,1.333c0,0,3.654,5.251,5.432,7.251c0,0-0.105,0-0.105,0  c0,1,0,4.22,0,6.971c-2,0.664-3.15,1.462-4.139,2.366L4.67,50.586c-1.185,1.581-1.067,4.587-0.757,6.441  C1.667,58.414,0,60.943,0,63.469v28.629c0,3.922,3.979,5.106,5.24,5.496c3.619,1.117,8.917,1.661,16.048,1.661  c8.29,0,12.766-0.958,15.151-1.473c0.26-0.056,0.798-0.106,1.011-0.15c3.188-0.649,5.55-2.821,5.55-5.534V63.469  C43,60.938,40.935,58.521,38.96,57.134z M39,92.098c0,1.733-1.943,2.289-2.577,2.417c-0.225,0.046-0.407,0.101-0.681,0.158  c-2.271,0.49-6.464,1.4-14.415,1.4c-6.808,0-11.444-0.496-14.755-1.52C4.063,93.778,4,92.916,4,92.098V63.469  c0-1.441,0.841-3.362,2.695-4.085l1.146-0.497l-0.372-1.339c-0.451-1.979-0.602-4.292-0.283-4.96C7.645,52.202,8,51.818,9,51.453  c0,0.608,0,1.176,0,1.678c0,0.514,0.391,0.82,0.842,0.929c1.331,0.94,5.747,1.919,11.708,1.919c7.187,0,12.131-1.421,12.131-2.486  c0-1.063-5.148-2.483-12.334-2.483c-4.46,0-8.347,0.547-10.347,1.217c0-0.565,0-1.128,0-1.687c3-0.814,6.243-1.384,10.084-1.384  c6.521,0,12.399,1.696,14.262,3.328c0.264,0.651,0.38,1.473,0.349,2.274c-0.281,0.602-0.739,1.165-1.329,1.595  c-1.571,1.144-4.027,1.38-5.882,1.627c-3.16,0.421-6.399,0.507-9.582,0.388c-1.539-0.058-1.53,2.328,0.003,2.386  c5.087,0.191,11.344,0.291,16.062-2.021l-0.003,0.014l1.079,0.588C37.713,60.146,39,62.04,39,63.469V92.098z"/>
<path d="M32.957,73.808c-1.723,0.199-6.727,0.729-11.101,0.795c-4.375,0.065-9.137-0.375-11.04-0.795  C8.913,73.387,7,75.587,7,77.783v10.339c0,2.196,1.355,3.132,3.8,3.976c2.445,0.844,5.876,1.59,11.112,1.59  c5.235,0,9.216-1.141,11.088-1.59c1.874-0.448,4-1.779,4-3.976V77.783C37,75.587,34.681,73.608,32.957,73.808z"/>
<text x="-24.0" y="117.53" font-size="5.0" font-weight="bold" font-family="Helvetica Neue, Helvetica, Arial-Unicode, Arial, Sans-serif" fill="#000000">Created by Cassie McKown</text><text x="-24.0" y="122.53" font-size="5.0" font-weight="bold" font-family="Helvetica Neue, Helvetica, Arial-Unicode, Arial, Sans-serif" fill="#000000">from the Noun Project</text></svg>