<svg xmlns="http://www.w3.org/2000/svg" xmlns:xlink="http://www.w3.org/1999/xlink" version="1.1" id="Calque_1" x="0px" y="0px" width="100px" height="100px" viewBox="5.0 -10.0 100.0 135.0" enable-background="new 0 0 100 100" xml:space="preserve">
<path stroke="#000000" stroke-width="1.406" stroke-miterlimit="10" d="M90.729,2.949L80.48,8.866v11.372l-10.191,5.884v11.855  l-10.07,5.814l-10.19-5.884l-10.307,5.949v11.768l-10.07,5.814l-10.19-5.883L9.155,61.504v11.904l10.307,5.951l10.19-5.885  l10.07,5.816v11.844l10.249,5.916l0.118-0.201l0,0L39.958,91V79.369l10.183-5.932l0,0l0.005-1.062v-0.812v-9.92l4.343-2.506  l5.73-3.309l10.189,5.883l10.307-5.951v-0.068l0.02-11.832l-0.422-0.234l-0.969-0.547l-2.125-1.25l-6.693-3.942V26.258l9.955-5.749  l0,0l0.301-0.181L80.715,9.001l10.131-5.847L90.729,2.949z M39.958,43.993l10.071-5.814L60.1,43.993v11.632l-6.281,3.625  l-3.79,2.189l-5.036-2.906l-5.035-2.908V43.993z M9.39,73.275V61.643l10.072-5.814l10.071,5.814v11.633l-10.071,5.812L9.39,73.275z   M29.769,61.643l10.071-5.814l5.036,2.91l5.035,2.904v11.633L39.84,79.088l-10.071-5.812V61.643z M60.334,55.625V43.993  l10.074-5.814l10.072,5.814v11.632l-10.072,5.814L60.334,55.625z"/>
<text x="0.0" y="117.5" font-size="5.0" font-weight="bold" font-family="Helvetica Neue, Helvetica, Arial-Unicode, Arial, Sans-serif" fill="#000000">Created by Alexis Boudal</text><text x="0.0" y="122.5" font-size="5.0" font-weight="bold" font-family="Helvetica Neue, Helvetica, Arial-Unicode, Arial, Sans-serif" fill="#000000">from the Noun Project</text></svg>